<?xml version="1.0" encoding="utf-8"?>
<!-- Svg Vector Icons : http://www.onlinewebfonts.com/icon -->
<!DOCTYPE svg PUBLIC "-//W3C//DTD SVG 1.1//EN" "http://www.w3.org/Graphics/SVG/1.1/DTD/svg11.dtd">
<svg version="1.1" xmlns="http://www.w3.org/2000/svg" xmlns:xlink="http://www.w3.org/1999/xlink" x="0px" y="0px" viewBox="0 0 1000 1000" enable-background="new 0 0 1000 1000" xml:space="preserve">
<metadata> Svg Vector Icons : http://www.onlinewebfonts.com/icon </metadata>
<g><g><g><path d="M500,10C229.4,10,10,229.4,10,500s219.4,490,490,490c270.6,0,490-219.3,490-490C990,229.3,770.6,10,500,10z M328.6,384.9h0.7c6.5-78.4,65.7-141.7,142.1-154.5V210h25v-50c0-2,1.6-3.6,3.6-3.6c2,0,3.6,1.6,3.6,3.6v50h25v20.4c76.4,12.8,135.6,76.2,142.2,154.5h0.7c7.9,0,14.3,6.4,14.3,14.3c0,7.9-6.4,14.3-14.3,14.3H328.6c-7.9,0-14.3-6.4-14.3-14.3C314.3,391.4,320.7,384.9,328.6,384.9z M307.2,438.5h385.7c9.9,0,17.9,8,17.9,17.9c0,9.9-8,17.9-17.9,17.9h-18c0,0.3,0.2,0.5,0.2,0.7v77.1h-35.7V475c0-0.3,0.1-0.5,0.1-0.7h-16.9c0,0.3,0.1,0.5,0.1,0.7v77.1h-35.7V475c0-0.3,0.1-0.5,0.1-0.7h-16.9c0,0.3,0.2,0.5,0.2,0.7v77.1h-35.7V475c0-0.3,0.1-0.5,0.2-0.7h-17c0,0.3,0.1,0.5,0.1,0.7v77.1h-35.7V475c0-0.3,0.1-0.5,0.1-0.7h-17c0,0.3,0.2,0.5,0.2,0.7v77.1h-35.7V475c0-0.3,0.1-0.5,0.2-0.7h-17c0,0.3,0.2,0.5,0.2,0.7v77.1h-35.7V475c0-0.3,0.1-0.5,0.1-0.7h-17c0,0.3,0.1,0.5,0.1,0.7v77.1H325V475c0-0.3,0.1-0.5,0.1-0.7h-18c-9.9,0-17.9-8-17.9-17.9C289.3,446.6,297.3,438.5,307.2,438.5z M742.9,772.1c9.9,0,17.9,8,17.9,17.9c0,9.9-8,17.9-17.9,17.9H257.2c-9.9,0-17.9-8-17.9-17.9c0-9.9,8-17.9,17.9-17.9H275V607.8h-17.9c-9.9,0-17.9-8-17.9-17.9c0-9.9,8-17.9,17.9-17.9h485.7c9.9,0,17.9,8,17.9,17.9c0,9.9-8,17.9-17.9,17.9H725v164.3H742.9z"/><rect x="485" y="607.8" width="30" height="164.3"/><rect x="325" y="607.8" width="30" height="164.3"/><rect x="405" y="607.8" width="30" height="164.3"/><rect x="565" y="607.8" width="30" height="164.3"/><rect x="645" y="607.8" width="30" height="164.3"/></g></g><g></g><g></g><g></g><g></g><g></g><g></g><g></g><g></g><g></g><g></g><g></g><g></g><g></g><g></g><g></g></g>
</svg>